PathFileType	4	(X/Y/Z)	Patient4_TMGait_0pt7_02_right_41.trc.trc
DataRate	CameraRate	NumFrames	NumMarkers	Units	OrigDataRate	OrigDataStartFrame	OrigNumFrames
88.607594936709	88.607594936709	6	33	mm	88.607594936709	18	       141
Frame#	Time	Sacral			L.Shoulder			Chest			R.Shoulder			Neck			R.ASIS			L.ASIS			R.Thigh.Superior			R.Thigh.Lateral			R.Thigh.Inferior			R.Patella			L.Thigh.Superior			L.Thigh.Lateral			L.Thigh.Inferior			L.Patella			L.Shank.Superior			L.Shank.Lateral			L.Shank.Inferior			R.Shank.Superior			R.Shank.Lateral			R.Shank.Inferior			R.Heel			R.Midfoot.Superior			R.Midfoot.Lateral			R.Toe			L.Heel			L.Midfoot.Lateral			L.Midfoot.Superior			L.Toe			L.Elbow			L.Wrist			R.Elbow			R.Wrist			
		X1	Y1	Z1	X2	Y2	Z2	X3	Y3	Z3	X4	Y4	Z4	X5	Y5	Z5	X6	Y6	Z6	X7	Y7	Z7	X8	Y8	Z8	X9	Y9	Z9	X10	Y10	Z10	X11	Y11	Z11	X12	Y12	Z12	X13	Y13	Z13	X14	Y14	Z14	X15	Y15	Z15	X16	Y16	Z16	X17	Y17	Z17	X18	Y18	Z18	X19	Y19	Z19	X20	Y20	Z20	X21	Y21	Z21	X22	Y22	Z22	X23	Y23	Z23	X24	Y24	Z24	X25	Y25	Z25	X26	Y26	Z26	X27	Y27	Z27	X28	Y28	Z28	X29	Y29	Z29	X30	Y30	Z30	X31	Y31	Z31	X32	Y32	Z32	X33	Y33	Z33	

18	46.611857142857	720.655424300229	1012.165509955706	478.365441299578	949.380950219004	1424.974201601723	303.246912605410	1034.590535630879	1342.901450044151	469.717828830418	950.427974919495	1430.224621599036	636.028218072831	948.961521165656	1484.352576161778	454.465122662726	937.996367250071	938.413717143679	608.839561122128	937.217612011750	951.436466199558	331.721885709657	1022.273133325701	784.900345157631	575.372678424560	994.116894026621	657.771837338819	647.752349119972	1085.520276279579	629.920768620588	567.178086493613	1125.113299342348	538.148078997513	585.778862543349	944.491357741263	728.285764714380	362.270749479426	832.966794346548	633.000280643186	295.830863318734	895.929304091721	539.172572132832	359.240660576118	881.777066936043	471.136073539258	367.337190051272	844.968084219457	405.188193980980	357.750123007224	738.023531605585	306.659177061929	307.719704386492	771.305360558539	187.642731702860	375.319082373563	1094.702263388735	447.046797680712	591.906207814737	1023.384016685595	341.940391388609	651.806865381185	1077.639064612633	247.705563706338	598.059346970594	957.253201960920	76.758435332209	565.974525124430	1126.284451556323	128.023510607489	604.979876963790	1041.862267515315	59.130556309800	635.454312982230	1246.791755538835	77.289401736108	625.055024744270	627.255225612931	40.727618369266	419.721930553307	696.941174100681	36.441116322599	336.077842772026	782.788406843034	95.677988324699	359.310740983141	908.424755801781	39.688316387079	322.932909451849	997.506151618799	1109.440667811754	141.993506508429	1236.954356014502	1158.678242284760	203.570536844708	788.107562328696	1125.311850807293	747.978493712572	755.227350212710	864.696243264981	742.462638226876	
19	46.623142857143	722.522732185710	1010.281859800957	480.747337764133	949.230440305791	1423.686911668421	305.148733333116	1035.078491056433	1341.849060914253	471.318509996302	951.169141750807	1428.989938248688	637.850424358543	948.973372552807	1482.955282553041	456.260070635193	940.385580671186	936.564691704631	610.329935254350	938.428988513295	949.992755284729	333.616635023326	1022.063624458257	779.463812045073	577.201422679489	990.765153374286	652.807642628676	649.425487753148	1081.206446964587	623.638284465351	568.241103727845	1119.895505221763	533.988018488972	585.964345540052	943.362466874108	726.310409716572	363.093242607719	830.429892170753	632.219742637429	296.733376065615	892.474973953066	537.599777278200	359.640998076868	877.653146563293	469.460501276120	367.586657290647	840.182951655378	403.965523918340	358.059166197019	731.967579813825	306.627221262086	308.141299257617	764.153859393739	187.075566199647	375.376174677058	1092.982326818261	443.065240248564	593.151330681140	1026.781830221331	334.856439216186	653.840401830499	1085.157289532765	242.995642978856	599.829425272843	972.556923911948	66.451647334884	568.213712088622	1139.517071577589	125.490696380699	607.118338242513	1057.955128925672	52.997650444328	637.959187057670	1262.351927156007	79.971102334575	627.624396495605	619.214646147011	40.737560275465	419.627830899395	688.976213323304	36.361505767439	336.032736503621	774.823004530700	95.575890430331	359.307281412966	900.484282783060	39.646580858597	322.889008425220	998.742639228607	1108.584342357876	143.972184588190	1236.672350676698	1161.070078341694	207.898467694968	785.718730403415	1126.240393207931	749.197813764663	750.741021016591	865.784543396207	743.539771749842	
20	46.634428571429	724.570206453460	1008.155558433720	483.373145234513	948.870888413921	1422.294431460356	307.236249471734	1035.574279256252	1340.725595290239	473.009735112560	951.987634381939	1427.541251776952	639.896646272678	948.888059724026	1481.437082233956	458.293595850631	943.029957893676	934.528457807063	611.873368088819	939.798762615262	948.328963309377	335.568410567199	1022.184703518032	773.833714339473	579.141954649466	987.635850598348	647.827477901770	651.188348638430	1077.101837531856	617.372102684495	569.360622742049	1114.655800483091	529.552142341245	586.262904409483	942.668333013542	724.244111631071	363.938356176368	828.390994383859	631.247884294275	297.789383742095	889.692237194056	535.874330192716	360.117549386667	874.295459529651	467.493170254668	367.867346860539	835.933211859353	402.491218459198	358.446572861327	726.271158097683	306.572136688990	308.635801281833	757.136844640209	186.421610394478	375.436058477521	1090.826604633079	438.794747820510	594.468883725116	1028.904210458584	328.091328279611	655.558836065129	1090.825415629375	238.407982504622	601.354918579641	984.826892671727	57.858213227360	569.797950803077	1150.002993850511	122.930606200813	608.936042754644	1070.578214634420	47.836088680640	639.979877143930	1274.399406294442	81.388859846911	629.993144835468	611.130621608514	40.804827361350	419.473112298198	680.996628163274	36.253950433629	335.948237341428	766.872303278908	95.441117131612	359.266117673361	892.568647957463	39.612795632006	322.825709467489	999.302073573171	1107.434789939670	146.124859755883	1235.960480537478	1162.210045771397	212.240339705087	784.235432795570	1126.414115787708	750.583683215169	747.488063594751	866.078049948592	744.639928371577	
21	46.645714285714	726.738068661052	1005.838637393611	486.220742275979	948.318155606042	1420.804765793597	309.500367539479	1036.083342297434	1339.552713598976	474.798579483880	952.870224065829	1425.908701948162	642.151711050771	948.729873669115	1479.827292162523	460.564614810402	945.851849948223	932.356030983704	613.498388834306	941.312821532183	946.495182683714	337.590281933771	1022.701846954012	768.274156561126	581.190268549981	984.922360928903	643.040724068212	652.985633415762	1073.490128319119	611.420869108162	570.575071609539	1109.695061368467	525.053596697719	586.730108100301	942.497220620137	722.117978822866	364.855377346822	826.981180526327	630.066138861680	299.033836997246	887.754612832780	533.987885737087	360.712172737219	871.893668454337	465.209559911627	368.198029959873	832.366175612746	400.753169523610	358.934494232600	721.065273216068	306.533846238422	309.215174441633	750.333410716593	185.720435052988	375.502515919563	1088.459366171877	434.399551625385	595.811534160556	1029.832994569863	321.794073787569	656.915051593792	1094.619855393376	233.984917839146	602.562645663813	993.710088992226	51.071199248177	570.704326509226	1157.587633695586	120.272656191224	610.309167512420	1079.447871079439	43.647061942911	641.461024747144	1282.808895143450	81.296010470689	632.000426941949	603.020043090365	41.048301442003	419.241705353678	673.010013292709	36.175700857066	335.816934032461	758.980465300057	95.286803297889	359.168262478824	884.676556876482	39.575158246114	322.742673882103	999.161871862387	1105.975388305483	148.438275936413	1234.842062514244	1162.086576034550	216.567507459649	783.720006665960	1125.782029352751	752.166684242935	745.527064834749	865.535989548753	745.745293901416	
22	46.657000000000	728.951784210441	1003.409530733922	489.256411037249	947.606312501819	1419.241317954574	311.924369024532	1036.614133814331	1338.361355386776	476.689921856596	953.810214036458	1424.143359444846	644.593887935565	948.537100879161	1478.172192565754	463.061247044076	948.760280062192	930.124193084092	615.243344609653	942.943819668571	944.564730885151	339.710742371935	1023.658520839607	763.053022710661	583.346266042815	982.782741277864	638.642286208998	654.758004715550	1070.622263009046	606.053528910647	571.921481445166	1105.295262627428	520.702370093840	587.389343474839	942.925954350255	719.982823129280	365.900591998953	826.335276729234	628.666540197649	300.497660475621	886.845978091234	531.948832598589	361.467275068429	870.644363958328	462.605043040479	368.595759589649	829.646398982492	398.760929712784	359.539530864457	716.502017765793	306.576149700192	309.890333179640	743.850276591286	185.039979893081	375.579341422008	1086.105386811704	430.060591913389	597.115618661058	1029.737543906836	316.113720298636	657.905252048746	1096.614057249394	229.786339071865	603.401981057831	999.061775379862	46.065967870756	570.985716679532	1162.255293800979	117.496980251173	611.150801575023	1084.510367343410	40.404614501388	642.409457115788	1287.642267073634	79.638418173704	633.525834977853	594.921585055986	41.639665264115	418.926052402672	665.035519133856	36.224735324875	335.636472484373	751.213912726587	95.141565174610	358.995257753526	876.803323760493	39.514367439682	322.642608757196	998.303684581489	1104.201820067028	150.905603102135	1233.336616334821	1160.682940324595	220.848754825025	784.228273942021	1124.329200965695	753.962222835312	744.910964470475	864.152046357422	746.867627311610	
23	46.668285714286	731.128075350273	1000.968604463144	492.437191657253	946.787186258746	1417.644778715572	314.484399789246	1037.176277487250	1337.190274177278	478.685403265530	954.808134423592	1422.316531647155	647.196161502540	948.358364125608	1476.533543422344	465.759970274244	951.659504557812	927.932578754534	617.151892535923	944.651708595822	942.632305064902	341.963023380925	1025.067978511776	758.418577693020	585.614051049370	981.322810826742	634.798486754439	656.455803723829	1068.681875344710	601.484928108927	573.430534364816	1101.687708598316	516.692112689504	588.231634189023	944.009005134633	717.910396005858	367.133575706939	826.584136062966	627.055413604630	302.201295929028	887.150146428836	529.787329322970	362.419280149454	870.738974788555	459.701096493502	369.071124906098	827.948498309791	396.549348404020	360.268585752561	712.749252745813	306.787171257960	310.670184913690	737.821717727241	184.477870718318	375.670842425436	1083.965954940794	425.961419427079	598.316039164510	1028.854154609361	311.188239499857	658.572623276566	1096.972688190355	225.889349256111	603.855169283795	1000.971203108150	42.701420637031	570.758361050800	1164.132849412176	114.643985808987	611.429094441668	1085.955756537438	38.051923445011	642.886406599764	1289.146608764264	76.576175878150	634.508503854202	586.902180169103	42.803035954069	418.532101389364	657.108547518060	36.545258394636	335.412597462452	743.662588345943	95.053280027016	358.733648938149	868.941305089539	39.403495188521	322.531834853028	996.713263207266	1102.126655727066	153.529666349969	1231.459527373660	1157.974859268639	225.050390478296	785.802941327458	1122.083463014827	755.967641073773	745.687919461432	861.959045901804	748.044438698791	
